<svg xmlns="http://www.w3.org/2000/svg" xmlns:xlink="http://www.w3.org/1999/xlink" role="presentation" preserveAspectRatio="xMidYMid meet" width="500" height="500" viewBox="0 0 500 500" class="ipc-reaction ipc-reaction--clap ipc-reaction--inline ipc-reaction-summary__reaction ipc-reaction-summary__reaction-front" fill="currentColor"><g><g><g><path fill="#ee9dc4" fill-opacity="1" fill-rule="nonzero" d=" M234.12 170.88 C233.44,172.09 231.77,172.38 230.75,171.47 C230.75,171.47 184.59,130.07 184.59,130.07 C180.97,126.83 182.72,121.3 187.8,119.91 C187.8,119.91 199.75,116.65 199.75,116.65 C203.1,115.74 206.63,117.07 208.07,119.78 C208.07,119.78 234.15,168.97 234.15,168.97 C234.46,169.56 234.45,170.28 234.12,170.88z "/><animate repeatCount="1" dur="2.002002s" begin="indefinite" fill="remove" attributeName="opacity" from="1" to="0" keyTimes="0;0.0833333;0.3541667;1" values="1;1;0;0" keySplines="0.333 0 0.667 1;0.333 0 0.667 1;0 0 0 0" calcMode="spline"/></g><animate repeatCount="1" dur="2.002002s" begin="indefinite" fill="remove" attributeName="opacity" from="1" to="0" keyTimes="0;0.3958333;0.3958334;1" values="1;1;0;0" keySplines="0 0 0 0;0 0 0 0;0 0 0 0" calcMode="spline"/></g><g><g><path fill="#ee82ae" fill-opacity="1" fill-rule="nonzero" d=" M282.18 163.83 C282.76,164.8 284.13,165 284.94,164.23 C284.94,164.23 321.54,129.36 321.54,129.36 C324.4,126.63 322.85,122.17 318.67,121.16 C318.67,121.16 308.86,118.8 308.86,118.8 C306.11,118.14 303.26,119.31 302.15,121.56 C302.15,121.56 282.11,162.27 282.11,162.27 C281.87,162.77 281.89,163.35 282.18,163.83z "/><animate repeatCount="1" dur="2.002002s" begin="indefinite" fill="remove" attributeName="opacity" from="1" to="0" keyTimes="0;0.0833333;0.3541667;1" values="1;1;0;0" keySplines="0.333 0 0.667 1;0.333 0 0.667 1;0 0 0 0" calcMode="spline"/></g><animate repeatCount="1" dur="2.002002s" begin="indefinite" fill="remove" attributeName="opacity" from="1" to="0" keyTimes="0;0.3958333;0.3958334;1" values="1;1;0;0" keySplines="0 0 0 0;0 0 0 0;0 0 0 0" calcMode="spline"/></g><g><g><path fill="#5ba7db" fill-opacity="1" fill-rule="nonzero" d=" M251.84 168.62 C253.37,169.68 255.56,169.03 256.25,167.32 C256.25,167.32 287.35,89.94 287.35,89.94 C289.79,83.88 284.39,78.24 277.44,79.59 C277.44,79.59 261.08,82.76 261.08,82.76 C256.5,83.65 253.03,87.35 252.9,91.48 C252.9,91.48 250.67,166.33 250.67,166.33 C250.64,167.24 251.08,168.09 251.84,168.62z "/><animate repeatCount="1" dur="2.002002s" begin="indefinite" fill="remove" attributeName="opacity" from="1" to="0" keyTimes="0;0.0833333;0.3541667;1" values="1;1;0;0" keySplines="0.333 0 0.667 1;0.333 0 0.667 1;0 0 0 0" calcMode="spline"/></g><animate repeatCount="1" dur="2.002002s" begin="indefinite" fill="remove" attributeName="opacity" from="1" to="0" keyTimes="0;0.3958333;0.3958334;1" values="1;1;0;0" keySplines="0 0 0 0;0 0 0 0;0 0 0 0" calcMode="spline"/></g><g opacity="0"><g opacity="0"><path fill="#ee9dc4" fill-opacity="1" fill-rule="nonzero" d=" M234.12 170.88 C233.44,172.09 231.77,172.38 230.75,171.47 C230.75,171.47 184.59,130.07 184.59,130.07 C180.97,126.83 182.72,121.3 187.8,119.91 C187.8,119.91 199.75,116.65 199.75,116.65 C203.1,115.74 206.63,117.07 208.07,119.78 C208.07,119.78 234.15,168.97 234.15,168.97 C234.46,169.56 234.45,170.28 234.12,170.88z " transform=" translate(22, 40)"/><animate repeatCount="1" dur="2.002002s" begin="indefinite" fill="remove" attributeName="opacity" from="0" to="1" keyTimes="0;0.375;0.5625;0.9583333;1" values="0;0;1;1;1" keySplines="0.306 0 0.648 1;0.306 0 0.648 1;0.394 0 0.829 1;0 0 0 0" calcMode="spline"/><animateMotion repeatCount="1" dur="2.002002s" begin="indefinite" fill="remove" keyTimes="0;0.0416667;0.375;0.7083333;1" path="M0 0 C0,0 0,0 0,0 C-0.3299999999999841,0 1.670000000000016,6.670000000000016 -2,0 C-5.670000000000016,-6.670000000000016 -18.669999999999987,-33.329999999999984 -22,-40 C-22,-40 -22,-40 -22,-40" keyPoints="0;0;0.13;1;1" keySplines="0.167 0 0.833 1;0.167 0 0.833 1;0.167 0 0 1;0 0 0 0" calcMode="spline"/></g><animate repeatCount="1" dur="2.002002s" begin="indefinite" fill="remove" attributeName="opacity" from="0" to="1" keyTimes="0;0.375;0.3750021;1" values="0;0;1;1" keySplines="0 0 0 0;0 0 0 0;0 0 0 0" calcMode="spline"/></g><g opacity="0"><g opacity="0"><path fill="#ee82ae" fill-opacity="1" fill-rule="nonzero" d=" M282.18 163.83 C282.76,164.8 284.13,165 284.94,164.23 C284.94,164.23 321.54,129.36 321.54,129.36 C324.4,126.63 322.85,122.17 318.67,121.16 C318.67,121.16 308.86,118.8 308.86,118.8 C306.11,118.14 303.26,119.31 302.15,121.56 C302.15,121.56 282.11,162.27 282.11,162.27 C281.87,162.77 281.89,163.35 282.18,163.83z " transform=" translate(-18, 40)"/><animate repeatCount="1" dur="2.002002s" begin="indefinite" fill="remove" attributeName="opacity" from="0" to="1" keyTimes="0;0.375;0.5625;0.9583333;1" values="0;0;1;1;1" keySplines="0.306 0 0.648 1;0.306 0 0.648 1;0.394 0 0.829 1;0 0 0 0" calcMode="spline"/><animateMotion repeatCount="1" dur="2.002002s" begin="indefinite" fill="remove" keyTimes="0;0.0416667;0.375;0.7083333;1" path="M0 0 C0,0 0,0 0,0 C-0.3300000000000125,0 -5,6.670000000000016 -2,0 C1,-6.670000000000016 14.669999999999987,-33.329999999999984 18,-40 C18,-40 18,-40 18,-40" keyPoints="0;0;0.14;1;1" keySplines="0.167 0 0.833 1;0.167 0 0.833 1;0.167 0 0 1;0 0 0 0" calcMode="spline"/></g><animate repeatCount="1" dur="2.002002s" begin="indefinite" fill="remove" attributeName="opacity" from="0" to="1" keyTimes="0;0.375;0.3750021;1" values="0;0;1;1" keySplines="0 0 0 0;0 0 0 0;0 0 0 0" calcMode="spline"/></g><g opacity="0"><g opacity="0"><path fill="#5ba7db" fill-opacity="1" fill-rule="nonzero" d=" M251.84 168.62 C253.37,169.68 255.56,169.03 256.25,167.32 C256.25,167.32 287.35,89.94 287.35,89.94 C289.79,83.88 284.39,78.24 277.44,79.59 C277.44,79.59 261.08,82.76 261.08,82.76 C256.5,83.65 253.03,87.35 252.9,91.48 C252.9,91.48 250.67,166.33 250.67,166.33 C250.64,167.24 251.08,168.09 251.84,168.62z " transform=" translate(2, 40)"/><animate repeatCount="1" dur="2.002002s" begin="indefinite" fill="remove" attributeName="opacity" from="0" to="1" keyTimes="0;0.375;0.5625;0.9583333;1" values="0;0;1;1;1" keySplines="0.195 0 0.562 1;0.195 0 0.562 1;0.352 0 0.843 1;0 0 0 0" calcMode="spline"/><animateMotion repeatCount="1" dur="2.002002s" begin="indefinite" fill="remove" keyTimes="0;0.0416667;0.375;0.7083333;1" path="M0 0 C0,0 0,0 0,0 C-0.3300000000000125,0 -1.6699999999999875,6.670000000000016 -2,0 C-2.3300000000000125,-6.670000000000016 -2,-33.329999999999984 -2,-40 C-2,-40 -2,-40 -2,-40" keyPoints="0;0;0.14;1;1" keySplines="0.167 0 0.833 1;0.167 0 0.833 1;0.167 0 0 1;0 0 0 0" calcMode="spline"/></g><animate repeatCount="1" dur="2.002002s" begin="indefinite" fill="remove" attributeName="opacity" from="0" to="1" keyTimes="0;0.375;0.3750021;1" values="0;0;1;1" keySplines="0 0 0 0;0 0 0 0;0 0 0 0" calcMode="spline"/></g><g transform=" translate(250, 250) scale(5, 5) translate(0, 0)"><g><path stroke="#af772a" stroke-linecap="round" stroke-linejoin="round" fill="none" stroke-width="2" stroke-opacity="1" d=" M58.11 33.75 C57.87,32.96 57.41,32.31 56.83,31.83 C56.15,31.27 55.21,31.15 54.4,31.5 C54.4,31.5 39.2,38.1 39.2,38.1 C39.04,38.17 38.88,38.17 38.73,38.11 C38.59,38.05 38.46,37.94 38.4,37.78 C38.26,37.46 38.41,37.1 38.72,36.96 C38.72,36.96 55.58,29.64 55.58,29.64 C56.4,29.28 56.97,28.5 57.03,27.6 C57.08,26.91 56.96,26.19 56.63,25.51 C56.41,25.07 56.13,24.7 55.79,24.38 C55.09,23.74 54.08,23.58 53.22,23.96 C52.45,24.3 51.53,24.71 51.49,24.72 C51.49,24.72 35.51,31.66 35.51,31.66 C35.35,31.73 35.19,31.73 35.04,31.67 C34.9,31.61 34.77,31.5 34.71,31.34 C34.57,31.02 34.72,30.66 35.03,30.52 C35.03,30.52 49.55,24.22 49.55,24.22 C50.75,23.7 51.34,22.28 50.83,21.06 C50.83,21.05 50.82,21.04 50.82,21.03 C49.96,18.98 47.62,18.03 45.61,18.91 C45.61,18.91 31.79,24.91 31.79,24.91 C31.79,24.91 28.28,26.42 28.28,26.42 C26.51,27.21 25.14,27.65 23.52,28 C23.52,28 23.49,28.01 23.49,28.01 C22.81,28.15 22.19,27.57 22.29,26.88 C22.29,26.88 22.92,22.07 22.92,22.07 C23.21,19.86 21.69,17.83 19.52,17.53 C17.35,17.24 15.35,18.78 15.06,20.99 C15.06,20.99 12.82,37.91 12.82,37.91 C12.75,38.45 12.64,38.99 12.53,39.52 C11.93,42.48 12.17,45.64 13.43,48.62 C16.71,56.43 25.6,60.05 33.28,56.71 C33.28,56.71 40.35,53.64 40.35,53.64 C40.52,53.59 40.69,53.54 40.86,53.47 C40.86,53.47 54.33,47.61 54.33,47.61 C56.35,46.74 57.28,44.37 56.42,42.32 C56.3,42.02 56.13,41.74 55.95,41.48 C55.29,40.6 54.11,40.3 53.1,40.74 C53.1,40.74 42.1,45.51 42.1,45.51 C41.93,45.59 41.75,45.58 41.6,45.52 C41.44,45.46 41.31,45.33 41.24,45.16 C41.1,44.83 41.25,44.43 41.58,44.29 C41.58,44.29 56.73,37.71 56.73,37.71 C57.29,37.47 57.75,37.02 57.98,36.45 C58.33,35.61 58.4,34.67 58.11,33.75z " transform=" translate(-31.995000000000005, -32.004)"/><path fill="#f4b642" fill-opacity="1" fill-rule="nonzero" d=" M58.11 33.75 C57.87,32.96 57.41,32.31 56.83,31.83 C56.15,31.27 55.21,31.15 54.4,31.5 C54.4,31.5 39.2,38.1 39.2,38.1 C39.04,38.17 38.88,38.17 38.73,38.11 C38.59,38.05 38.46,37.94 38.4,37.78 C38.26,37.46 38.41,37.1 38.72,36.96 C38.72,36.96 55.58,29.64 55.58,29.64 C56.4,29.28 56.97,28.5 57.03,27.6 C57.08,26.91 56.96,26.19 56.63,25.51 C56.41,25.07 56.13,24.7 55.79,24.38 C55.09,23.74 54.08,23.58 53.22,23.96 C52.45,24.3 51.53,24.71 51.49,24.72 C51.49,24.72 35.51,31.66 35.51,31.66 C35.35,31.73 35.19,31.73 35.04,31.67 C34.9,31.61 34.77,31.5 34.71,31.34 C34.57,31.02 34.72,30.66 35.03,30.52 C35.03,30.52 49.55,24.22 49.55,24.22 C50.75,23.7 51.34,22.28 50.83,21.06 C50.83,21.05 50.82,21.04 50.82,21.03 C49.96,18.98 47.62,18.03 45.61,18.91 C45.61,18.91 31.79,24.91 31.79,24.91 C31.79,24.91 28.28,26.42 28.28,26.42 C26.51,27.21 25.14,27.65 23.52,28 C23.52,28 23.49,28.01 23.49,28.01 C22.81,28.15 22.19,27.57 22.29,26.88 C22.29,26.88 22.92,22.07 22.92,22.07 C23.21,19.86 21.69,17.83 19.52,17.53 C17.35,17.24 15.35,18.78 15.06,20.99 C15.06,20.99 12.82,37.91 12.82,37.91 C12.75,38.45 12.64,38.99 12.53,39.52 C11.93,42.48 12.17,45.64 13.43,48.62 C16.71,56.43 25.6,60.05 33.28,56.71 C33.28,56.71 40.35,53.64 40.35,53.64 C40.52,53.59 40.69,53.54 40.86,53.47 C40.86,53.47 54.33,47.61 54.33,47.61 C56.35,46.74 57.28,44.37 56.42,42.32 C56.3,42.02 56.13,41.74 55.95,41.48 C55.29,40.6 54.11,40.3 53.1,40.74 C53.1,40.74 42.1,45.51 42.1,45.51 C41.93,45.59 41.75,45.58 41.6,45.52 C41.44,45.46 41.31,45.33 41.24,45.16 C41.1,44.83 41.25,44.43 41.58,44.29 C41.58,44.29 56.73,37.71 56.73,37.71 C57.29,37.47 57.75,37.02 57.98,36.45 C58.33,35.61 58.4,34.67 58.11,33.75z " transform=" translate(-31.995000000000005, -32.004)"/><animateMotion repeatCount="1" dur="2.002002s" begin="indefinite" fill="remove" keyTimes="0;0.1510417;0.2708334;0.3420208;1" path="M0 0 C0,0 0,0 0,0 C0.8799999999999999,-0.4399999999999995 5.33,-2.6599999999999997 5.33,-2.6599999999999997 C5.33,-2.6599999999999997 0.8799999999999999,-0.4399999999999995 0,0 C0,0 0,0 0,0" keyPoints="0;0;0.5;1;1" keySplines="0.167 0.167 0.833 0.833;0.167 0.167 0.833 0.833;0.167 0.167 0.833 0.833;0 0 0 0" calcMode="spline"/><animateTransform repeatCount="1" dur="2.002002s" begin="indefinite" fill="remove" attributeName="transform" from="0" to="0" type="rotate" additive="sum" keyTimes="0;0.1510417;0.2708334;0.3420208;1" values="0;0;-10;0;0" keySplines="0.167 0.167 0.833 0.833;0.167 0.167 0.833 0.833;0.167 0.167 0.833 0.833;0 0 0 0" calcMode="spline"/><animateTransform repeatCount="1" dur="2.002002s" begin="indefinite" fill="remove" attributeName="transform" from="1 1" to="1 1" type="scale" additive="sum" keyTimes="0;0.1510417;0.2708334;0.3420208;1" values="1 1;1 1;0.8 0.8;1 1;1 1" keySplines="0.167 0.167 0.833 0.833;0.167 0.167 0.833 0.833;0.167 0.167 0.833 0.833;0 0 0 0" calcMode="spline"/></g></g><g transform=" translate(250, 250) scale(5, 5) translate(0, 0)"><g><path stroke="#af772a" stroke-linecap="round" stroke-linejoin="round" fill="none" stroke-width="2" stroke-opacity="1" d=" M52.29 37.65 C51.05,36.41 49.16,36.39 48.37,37.19 C48.37,37.19 39.92,45.78 39.92,45.78 C39.79,45.91 39.62,45.97 39.45,45.97 C39.28,45.97 39.12,45.91 38.99,45.78 C38.73,45.52 38.73,45.09 38.99,44.83 C38.99,44.83 50.61,33.03 50.61,33.03 C51.92,31.72 51.38,29.58 50.31,28.51 C48.86,27.06 46.83,27.48 46.18,28.14 C46.18,28.14 34.51,40 34.51,40 C34.39,40.12 34.23,40.18 34.08,40.18 C33.92,40.18 33.76,40.12 33.65,40 C33.41,39.75 33.41,39.36 33.65,39.12 C33.65,39.12 46.61,25.94 46.61,25.94 C47.24,25.31 47.81,23.31 46.07,21.72 C44.59,20.36 42.75,21.26 42.26,21.65 C41.45,22.29 28.72,35.41 28.72,35.41 C28.61,35.53 28.45,35.59 28.29,35.59 C28.14,35.59 27.98,35.53 27.86,35.41 C27.62,35.17 27.62,34.78 27.86,34.54 C27.86,34.54 39.03,23.19 39.03,23.19 C39.29,22.89 39.46,22.52 39.55,22.12 C39.88,20.6 38.81,19.18 37.34,18.68 C35.93,18.2 34.53,18.64 33.43,19.76 C33.43,19.76 22.8,30.55 22.8,30.55 C22.8,30.55 20.1,33.28 20.1,33.28 C18.74,34.68 17.63,35.61 16.25,36.55 C16.25,36.55 16.23,36.56 16.23,36.56 C15.65,36.95 14.87,36.65 14.7,35.97 C14.7,35.97 13.53,31.26 13.53,31.26 C12.99,29.1 10.83,27.8 8.71,28.34 C6.58,28.89 5.29,31.08 5.83,33.24 C5.83,33.24 9.95,49.78 9.95,49.78 C10.09,50.32 10.18,50.86 10.27,51.39 C10.8,54.36 12.19,57.21 14.45,59.5 C20.35,65.5 29.93,65.5 35.84,59.5 C35.84,59.5 41.27,53.98 41.27,53.98 C41.41,53.87 41.55,53.76 41.68,53.62 C41.68,53.62 51.88,43.26 51.88,43.26 C53.51,41.61 54.38,39.74 52.29,37.65z " transform=" translate(-31.994999999999997, -32.001999999999995)"/><path fill="#fdd856" fill-opacity="1" fill-rule="nonzero" d=" M52.29 37.65 C51.05,36.41 49.16,36.39 48.37,37.19 C48.37,37.19 39.92,45.78 39.92,45.78 C39.79,45.91 39.62,45.97 39.45,45.97 C39.28,45.97 39.12,45.91 38.99,45.78 C38.73,45.52 38.73,45.09 38.99,44.83 C38.99,44.83 50.61,33.03 50.61,33.03 C51.92,31.72 51.38,29.58 50.31,28.51 C48.86,27.06 46.83,27.48 46.18,28.14 C46.18,28.14 34.51,40 34.51,40 C34.39,40.12 34.23,40.18 34.08,40.18 C33.92,40.18 33.76,40.12 33.65,40 C33.41,39.75 33.41,39.36 33.65,39.12 C33.65,39.12 46.61,25.94 46.61,25.94 C47.24,25.31 47.81,23.31 46.07,21.72 C44.59,20.36 42.75,21.26 42.26,21.65 C41.45,22.29 28.72,35.41 28.72,35.41 C28.61,35.53 28.45,35.59 28.29,35.59 C28.14,35.59 27.98,35.53 27.86,35.41 C27.62,35.17 27.62,34.78 27.86,34.54 C27.86,34.54 39.03,23.19 39.03,23.19 C39.29,22.89 39.46,22.52 39.55,22.12 C39.88,20.6 38.81,19.18 37.34,18.68 C35.93,18.2 34.53,18.64 33.43,19.76 C33.43,19.76 22.8,30.55 22.8,30.55 C22.8,30.55 20.1,33.28 20.1,33.28 C18.74,34.68 17.63,35.61 16.25,36.55 C16.25,36.55 16.23,36.56 16.23,36.56 C15.65,36.95 14.87,36.65 14.7,35.97 C14.7,35.97 13.53,31.26 13.53,31.26 C12.99,29.1 10.83,27.8 8.71,28.34 C6.58,28.89 5.29,31.08 5.83,33.24 C5.83,33.24 9.95,49.78 9.95,49.78 C10.09,50.32 10.18,50.86 10.27,51.39 C10.8,54.36 12.19,57.21 14.45,59.5 C20.35,65.5 29.93,65.5 35.84,59.5 C35.84,59.5 41.27,53.98 41.27,53.98 C41.41,53.87 41.55,53.76 41.68,53.62 C41.68,53.62 51.88,43.26 51.88,43.26 C53.51,41.61 54.38,39.74 52.29,37.65z " transform=" translate(-31.994999999999997, -32.001999999999995)"/><path fill="#ffe38d" fill-opacity="1" fill-rule="nonzero" d=" M51.24 41.69 C51.44,41.9 51.78,41.88 51.93,41.63 C52.56,40.65 52.45,39.33 51.6,38.47 C50.75,37.61 49.45,37.49 48.48,38.13 C48.25,38.28 48.23,38.63 48.42,38.83 C48.42,38.83 51.24,41.69 51.24,41.69z " transform=" translate(-31.994999999999997, -32.001999999999995)"/><path fill="#ffe38d" fill-opacity="1" fill-rule="nonzero" d=" M49.22 32.41 C49.42,32.61 49.76,32.59 49.91,32.35 C50.54,31.37 50.42,30.04 49.58,29.18 C48.73,28.32 47.43,28.21 46.46,28.84 C46.22,29 46.2,29.35 46.4,29.55 C46.4,29.55 49.22,32.41 49.22,32.41z " transform=" translate(-31.994999999999997, -32.001999999999995)"/><path fill="#ffe38d" fill-opacity="1" fill-rule="nonzero" d=" M45.25 25.48 C45.44,25.66 45.76,25.64 45.9,25.42 C46.48,24.51 46.37,23.27 45.59,22.47 C44.8,21.67 43.58,21.57 42.68,22.15 C42.46,22.3 42.44,22.62 42.63,22.81 C42.63,22.81 45.25,25.48 45.25,25.48z " transform=" translate(-31.994999999999997, -32.001999999999995)"/><path fill="#ffe38d" fill-opacity="1" fill-rule="nonzero" d=" M37.42 23.16 C37.6,23.36 37.93,23.34 38.07,23.11 C38.66,22.18 38.56,20.92 37.76,20.11 C36.95,19.29 35.72,19.19 34.8,19.79 C34.58,19.93 34.56,20.26 34.75,20.45 C34.75,20.45 37.42,23.16 37.42,23.16z " transform=" translate(-31.994999999999997, -32.001999999999995)"/><animateMotion repeatCount="1" dur="2.002002s" begin="indefinite" fill="remove" keyTimes="0;0.1510417;0.2708334;0.3420208;1" path="M0 0 C0,0 0,0 0,0 C-0.8900000000000001,-0.4399999999999995 -5.34,-2.66 -5.34,-2.66 C-5.34,-2.66 -0.8900000000000001,-0.4399999999999995 0,0 C0,0 0,0 0,0" keyPoints="0;0;0.5;1;1" keySplines="0.167 0.167 0.833 0.833;0.167 0.167 0.833 0.833;0.167 0.167 0.833 0.833;0 0 0 0" calcMode="spline"/><animateTransform repeatCount="1" dur="2.002002s" begin="indefinite" fill="remove" attributeName="transform" from="0" to="0" type="rotate" additive="sum" keyTimes="0;0.1510417;0.2708334;0.3420208;1" values="0;0;-5;0;0" keySplines="0.167 0.167 0.833 0.833;0.167 0.167 0.833 0.833;0.167 0.167 0.833 0.833;0 0 0 0" calcMode="spline"/><animateTransform repeatCount="1" dur="2.002002s" begin="indefinite" fill="remove" attributeName="transform" from="1 1" to="1 1" type="scale" additive="sum" keyTimes="0;0.1510417;0.2708334;0.3420208;1" values="1 1;1 1;1.05 1.05;1 1;1 1" keySplines="0.167 0.167 0.833 0.833;0.167 0.167 0.833 0.833;0.167 0.167 0.833 0.833;0 0 0 0" calcMode="spline"/></g></g></g></svg>